<svg width="140" height="81" viewBox="0 0 140 81" fill="none" xmlns="http://www.w3.org/2000/svg">
<path d="M138.001 32.6358C137.938 32.0185 137.823 31.4763 137.671 31.0749C137.518 30.6735 137.334 30.4303 137.141 30.3746L131.451 27.5733L128.901 10.1246C128.82 9.55396 128.692 9.07272 128.533 8.736C128.373 8.39931 128.189 8.2207 128.001 8.2207C127.814 8.2207 127.63 8.39931 127.47 8.736C127.311 9.07272 127.183 9.55396 127.101 10.1246L124.551 27.5396L118.861 30.3746C118.676 30.4634 118.502 30.7254 118.359 31.1311C118.216 31.5368 118.109 32.0698 118.051 32.6696C117.998 33.2557 117.994 33.8795 118.038 34.4742C118.082 35.0689 118.173 35.6116 118.301 36.0446L122.431 49.5446L121.431 68.7146C121.396 69.3474 121.414 70.0015 121.485 70.5995C121.556 71.1972 121.676 71.7146 121.831 72.0896C121.983 72.4544 122.161 72.6697 122.346 72.7116C122.532 72.7534 122.717 72.6198 122.881 72.3258L128.001 63.3146L133.101 72.3596C133.242 72.6269 133.4 72.7663 133.561 72.7646C133.773 72.7673 133.98 72.5425 134.151 72.1233C134.307 71.7484 134.427 71.231 134.498 70.6333C134.568 70.0352 134.587 69.3811 134.551 68.7483L133.551 49.5783L137.681 36.0783C137.826 35.6656 137.933 35.1229 137.989 34.5133C138.046 33.9042 138.05 33.253 138.001 32.6358ZM131.851 46.1358C131.734 46.5186 131.646 46.9924 131.596 47.5162C131.545 48.0397 131.534 48.5972 131.561 49.1396L132.281 63.2808L128.521 56.5308C128.377 56.271 128.215 56.1349 128.051 56.1349C127.888 56.1349 127.726 56.271 127.581 56.5308L123.821 63.2808L124.541 49.1396C124.569 48.5972 124.558 48.0397 124.507 47.5162C124.456 46.9924 124.369 46.5186 124.251 46.1358L121.251 36.0108L125.461 33.9521C125.623 33.8761 125.777 33.667 125.91 33.3434C126.042 33.0198 126.149 32.5914 126.221 32.0958L128.001 19.2371L129.881 32.1296C129.953 32.6252 130.06 33.0535 130.193 33.3771C130.325 33.7008 130.479 33.9099 130.641 33.9858L134.851 36.0446L131.851 46.1358Z" fill="#EA5959"/>
<path d="M22 34.0869C22.1 32.3995 21.7 30.3745 21.2 30.3745L15.5 27.6745L12.9 10.1245C12.8 9.44955 12.7 9.11205 12.5 8.77455C12 7.76205 11.4 8.43705 11.1 10.1245L8.6 27.6745L2.9 30.3745C2.6 30.3745 2.4 30.712 2.3 31.387C1.9 32.737 1.9 34.7619 2.3 36.1119L6.4 49.6119L5.4 68.8494C5.4 69.5244 5.4 70.1994 5.5 70.8744C5.8 72.5619 6.4 73.2369 6.9 72.2244L12 63.1119L17.1 72.2244C17.2 72.5619 17.4 72.5619 17.6 72.5619H17.8C18.3 72.2244 18.7 70.5369 18.6 68.5119L17.6 49.2744L21.7 35.7744C21.9 35.4369 22 34.7619 22 34.0869Z" fill="#EA5959"/>
<path d="M80 34.0869C80.1 32.3995 79.7 30.3745 79.2 30.3745L73.5 27.6745L70.9 10.1245C70.8 9.44955 70.7 9.11205 70.5 8.77455C70 7.76205 69.4 8.43705 69.1 10.1245L66.6 27.6745L60.9 30.3745C60.6 30.3745 60.4 30.712 60.3 31.387C59.9 32.737 59.9 34.7619 60.3 36.1119L64.4 49.6119L63.4 68.8494C63.4 69.5244 63.4 70.1994 63.5 70.8744C63.8 72.5619 64.4 73.2369 64.9 72.2244L70 63.1119L75.1 72.2244C75.2 72.5619 75.4 72.5619 75.6 72.5619H75.8C76.3 72.2244 76.7 70.5369 76.6 68.5119L75.6 49.2744L79.7 35.7744C79.9 35.4369 80 34.7619 80 34.0869Z" fill="#EA5959"/>
<path d="M51 34.0869C51.1 32.3995 50.7 30.3745 50.2 30.3745L44.5 27.6745L41.9 10.1245C41.8 9.44955 41.7 9.11205 41.5 8.77455C41 7.76205 40.4 8.43705 40.1 10.1245L37.6 27.6745L31.9 30.3745C31.6 30.3745 31.4 30.712 31.3 31.387C30.9 32.737 30.9 34.7619 31.3 36.1119L35.4 49.6119L34.4 68.8494C34.4 69.5244 34.4 70.1994 34.5 70.8744C34.8 72.5619 35.4 73.2369 35.9 72.2244L41 63.1119L46.1 72.2244C46.2 72.5619 46.4 72.5619 46.6 72.5619H46.8C47.3 72.2244 47.7 70.5369 47.6 68.5119L46.6 49.2744L50.7 35.7744C50.9 35.4369 51 34.7619 51 34.0869Z" fill="#EA5959"/>
<path d="M109 34.0869C109.1 32.3995 108.7 30.3745 108.2 30.3745L102.5 27.6745L99.9 10.1245C99.8 9.44955 99.7 9.11205 99.5 8.77455C99 7.76205 98.4 8.43705 98.1 10.1245L95.6 27.6745L89.9 30.3745C89.6 30.3745 89.4 30.712 89.3 31.387C88.9 32.737 88.9 34.7619 89.3 36.1119L93.4 49.6119L92.4 68.8494C92.4 69.5244 92.4 70.1994 92.5 70.8744C92.8 72.5619 93.4 73.2369 93.9 72.2244L99 63.1119L104.1 72.2244C104.2 72.5619 104.4 72.5619 104.6 72.5619H104.8C105.3 72.2244 105.7 70.5369 105.6 68.5119L104.6 49.2744L108.7 35.7744C108.9 35.4369 109 34.7619 109 34.0869Z" fill="#EA5959"/>
</svg>
